<?xml version="1.0" standalone="no"?>
<!DOCTYPE svg PUBLIC "-//W3C//DTD SVG 20010904//EN"
 "http://www.w3.org/TR/2001/REC-SVG-20010904/DTD/svg10.dtd">
<svg version="1.0" xmlns="http://www.w3.org/2000/svg"
 width="598.000000pt" height="598.000000pt" viewBox="0 0 598.000000 598.000000"
 preserveAspectRatio="xMidYMid meet">
<metadata>
Created by potrace 1.14, written by Peter Selinger 2001-2017
</metadata>
<g transform="translate(0.000000,598.000000) scale(0.100000,-0.100000)"
fill="#000000" stroke="none">
<path d="M3160 5969 c-144 -38 -219 -70 -320 -136 -76 -50 -103 -72 -195 -162
-79 -77 -81 -78 -180 -106 -156 -44 -310 -120 -403 -200 -98 -84 -189 -264
-193 -385 -1 -32 -10 -58 -31 -88 -115 -166 -147 -399 -75 -538 15 -29 74 -87
110 -109 15 -9 16 -18 6 -75 -53 -319 59 -674 291 -923 l69 -74 -34 -33 c-19
-19 -37 -42 -40 -51 -4 -10 -29 -29 -58 -42 -98 -45 -164 -140 -174 -254 -5
-48 -14 -68 -62 -137 -62 -89 -129 -202 -184 -313 -23 -45 -44 -74 -58 -78
-26 -9 -223 -101 -334 -157 -130 -65 -137 -73 -215 -233 -77 -158 -144 -263
-217 -341 -56 -61 -72 -70 -136 -78 -27 -4 -59 -13 -71 -21 -43 -28 -146 -231
-162 -320 -7 -38 -4 -36 87 74 100 122 134 146 211 155 l48 6 -6 -47 c-22
-206 -26 -216 -109 -298 -85 -83 -195 -234 -195 -266 0 -5 24 13 53 40 75 72
182 156 254 199 34 20 67 48 74 62 30 64 51 135 80 274 25 123 38 164 70 219
21 38 39 72 39 77 0 5 3 10 8 12 9 4 124 193 142 235 15 33 43 45 190 78 88
20 94 20 86 -7 -15 -52 -44 -194 -52 -253 -3 -22 -8 -51 -10 -65 -10 -52 -12
-358 -3 -420 6 -36 12 -76 14 -90 15 -104 67 -262 120 -368 165 -328 455 -558
835 -663 25 -7 50 -14 55 -15 6 -2 71 -14 145 -28 119 -21 159 -24 345 -21
116 1 221 5 235 9 14 3 39 9 55 12 132 23 311 90 420 157 199 122 382 348 470
582 61 164 84 311 80 520 -3 149 -7 200 -26 325 -17 111 -19 123 -33 183 -7
31 -9 57 -5 57 5 0 74 -65 153 -144 l143 -144 23 -83 c42 -161 126 -404 162
-476 8 -17 8 -27 -4 -45 -9 -13 -35 -59 -58 -102 -42 -78 -42 -78 -37 -160 4
-44 8 -91 11 -102 2 -12 7 -37 10 -55 7 -44 24 -97 26 -84 1 6 3 17 4 25 2 8
6 40 10 70 13 101 18 124 37 176 11 29 33 71 50 94 l31 42 46 -49 c57 -60 71
-77 121 -151 66 -98 105 -172 89 -172 -17 0 -23 -68 -7 -90 8 -12 10 -9 6 12
-3 19 1 28 13 31 13 3 16 0 13 -14 -4 -13 0 -19 11 -19 10 0 13 -6 10 -15 -4
-8 -14 -15 -24 -15 -21 0 -70 -44 -70 -64 0 -8 -3 -21 -6 -30 -3 -9 -1 -16 5
-16 6 0 11 8 11 19 0 27 45 71 74 71 19 0 26 -7 34 -38 l10 -37 1 35 2 35 23
-29 c14 -16 21 -36 19 -47 -4 -15 -1 -18 11 -13 9 3 16 11 16 16 0 17 -32 78
-41 78 -17 0 -41 49 -34 71 5 15 10 18 18 10 7 -7 6 -15 -4 -27 -12 -15 -12
-17 1 -12 19 6 26 67 9 82 -8 8 -13 8 -16 -1 -9 -24 -23 -13 -23 17 0 107
-118 386 -207 487 -48 55 -92 159 -138 323 -67 246 -81 290 -110 360 -90 216
-377 582 -603 769 -39 32 -63 64 -92 121 -22 43 -37 80 -34 82 11 11 13 95 3
130 -12 46 -76 112 -124 129 -19 7 -38 21 -41 31 -7 24 -55 68 -74 68 -8 0 12
17 45 37 210 129 376 313 465 517 22 50 39 76 50 76 81 0 195 90 244 193 30
65 56 170 56 233 0 27 5 44 15 47 27 11 75 90 96 157 33 111 28 271 -13 371
-8 19 -16 60 -17 93 -1 32 -4 68 -7 80 -2 11 -8 44 -13 71 -10 52 -46 165 -64
199 -9 18 -6 19 38 13 26 -4 114 -27 196 -52 82 -25 151 -45 153 -45 2 0 3
-26 2 -57 -6 -128 61 -237 181 -294 58 -28 73 -31 137 -27 166 10 284 127 294
293 8 136 -71 258 -196 305 -100 38 -235 16 -308 -52 l-22 -19 -73 93 c-207
263 -411 472 -535 549 -49 30 -115 48 -449 125 -41 10 -207 40 -265 49 -158
24 -416 32 -480 14z"/>
<path d="M4887 413 c8 -24 34 -53 46 -53 5 0 4 7 -3 15 -17 20 -5 32 15 15 8
-7 15 -8 15 -2 0 13 -45 42 -64 42 -10 0 -13 -6 -9 -17z"/>
<path d="M5126 405 c-16 -14 -25 -25 -20 -25 6 0 15 5 21 11 6 6 17 8 23 4 9
-6 8 -10 -4 -17 -9 -5 -16 -14 -16 -21 1 -14 60 49 60 63 0 18 -35 10 -64 -15z"/>
<path d="M4843 343 c-21 -8 -15 -20 21 -37 40 -19 46 -20 46 -6 0 6 -9 10 -21
10 -12 0 -17 4 -13 11 3 6 15 9 25 6 10 -3 21 -2 24 3 8 13 -58 23 -82 13z"/>
<path d="M5168 343 c-20 -5 -23 -24 -7 -40 14 -14 81 15 76 31 -4 12 -42 17
-69 9z m22 -28 c-12 -15 -30 -12 -30 6 0 5 10 9 21 9 18 0 19 -2 9 -15z"/>
<path d="M4865 261 c-44 -21 -36 -27 14 -10 17 6 31 15 31 20 0 11 2 12 -45
-10z"/>
<path d="M4951 267 c-6 -8 -36 -20 -66 -27 -71 -17 -85 -35 -19 -24 51 8 175
8 301 1 67 -4 71 -3 67 16 -4 25 -5 26 -43 37 -19 5 -31 5 -31 -1 0 -5 14 -12
30 -16 17 -3 33 -10 36 -15 3 -5 -7 -6 -23 -2 -15 3 -46 9 -68 13 -26 5 -39
12 -37 21 2 10 0 11 -10 3 -7 -6 -34 -10 -60 -9 -27 1 -48 -2 -48 -7 0 -4 -5
-5 -10 -2 -6 4 -8 11 -5 16 9 14 -1 11 -14 -4z"/>
<path d="M4705 181 c-3 -6 -4 -11 -1 -11 3 0 -1 -18 -9 -40 -15 -44 -14 -46
15 -27 17 10 22 9 31 -3 8 -11 9 -6 4 20 -4 19 -8 42 -9 49 -3 19 -22 25 -31
12z m25 -41 c0 -5 -4 -10 -10 -10 -5 0 -10 5 -10 10 0 6 5 10 10 10 6 0 10 -4
10 -10z"/>
<path d="M4765 143 c1 -44 3 -48 28 -51 15 -2 27 1 27 7 0 6 -8 11 -19 11 -11
0 -18 7 -18 18 0 42 -4 62 -11 62 -5 0 -8 -21 -7 -47z"/>
<path d="M4828 179 c-2 -5 -2 -28 0 -50 4 -33 7 -39 28 -39 29 0 32 16 5 23
-15 4 -18 12 -16 41 4 33 -8 51 -17 25z"/>
<path d="M4890 140 c0 -50 1 -51 28 -48 25 3 27 6 27 48 0 42 -2 45 -27 48
-27 3 -28 2 -28 -48z m44 7 c-3 -33 -4 -37 -14 -37 -5 0 -10 14 -10 31 0 20 4
29 13 27 6 -3 11 -12 11 -21z"/>
<path d="M4982 169 c-18 -47 -22 -79 -12 -79 5 0 10 5 10 10 0 14 28 12 33 -2
10 -30 15 2 6 38 -14 52 -26 63 -37 33z m15 -31 c-3 -8 -6 -5 -6 6 -1 11 2 17
5 13 3 -3 4 -12 1 -19z"/>
<path d="M5033 163 c8 -16 13 -36 12 -45 -2 -10 1 -20 6 -24 8 -5 13 10 10 30
-1 4 2 13 7 20 15 19 22 46 11 46 -5 0 -13 -10 -18 -22 l-8 -23 -7 23 c-4 12
-12 22 -17 22 -5 0 -3 -12 4 -27z"/>
<path d="M5109 174 c-8 -10 -9 -18 -2 -22 5 -4 9 -17 8 -30 -1 -13 2 -25 7
-28 4 -3 8 18 8 45 0 56 -1 58 -21 35z"/>
<path d="M5192 173 c-4 -10 -7 -24 -6 -30 1 -7 2 -20 3 -28 0 -9 8 -18 16 -21
18 -7 47 14 39 28 -3 5 -11 4 -20 -3 -11 -9 -15 -8 -20 5 -9 25 4 52 18 38 19
-19 30 -14 18 8 -13 25 -36 26 -48 3z"/>
<path d="M5260 165 c-12 -32 6 -75 32 -75 19 0 27 12 32 47 9 50 -47 74 -64
28z m45 -26 c0 -29 -27 -33 -31 -5 -2 11 0 24 3 28 9 17 28 1 28 -23z"/>
<path d="M5340 142 c0 -41 3 -48 20 -48 21 0 23 7 14 43 -4 13 -10 21 -14 18
-5 -3 -6 4 -3 15 3 11 0 20 -6 20 -6 0 -11 -19 -11 -48z m25 -22 c3 -5 1 -10
-4 -10 -6 0 -11 5 -11 10 0 6 2 10 4 10 3 0 8 -4 11 -10z"/>
<path d="M5380 171 c0 -34 12 -81 21 -81 5 0 9 23 9 50 0 38 -4 50 -15 50 -8
0 -15 -8 -15 -19z"/>
<path d="M5155 100 c3 -5 8 -10 11 -10 2 0 4 5 4 10 0 6 -5 10 -11 10 -5 0 -7
-4 -4 -10z"/>
</g>
</svg>
